<?xml version="1.0" encoding="utf-8"?>
<!-- Generated by Mocodo 4.3.3 -->
<svg width="1127" height="864" viewBox="0 0 1127 864" xmlns="http://www.w3.org/2000/svg">
<rect x="0" y="0" width="1127" height="864" fill="#FFFFFF" stroke="none" stroke-width="0"/>

<!-- Association RATTACHER_PANIER -->
<g class="page_0_a7702cee diagram_page" visibility="visible">
	<line x1="339" y1="116" x2="546" y2="116" stroke="#000000" stroke-width="1"/>
	<line x1="105" y1="116" x2="546" y2="116" stroke="#000000" stroke-width="1"/>
	<g>
		<path d="M607 90 a14 14 90 0 1 14 14 V116 h-150 V104 a14 14 90 0 1 14 -14" fill="#FFFFFF" stroke="#FFFFFF" stroke-width="0"/>
		<path d="M621 116 v12 a14 14 90 0 1 -14 14 H485 a14 14 90 0 1 -14 -14 V116 H150" fill="#FFFFFF" stroke="#FFFFFF" stroke-width="0"/>
		<rect x="471" y="90" width="150" height="52" fill="none" rx="14" stroke="#000000" stroke-width="1.5"/>
		<line x1="471" y1="116" x2="621" y2="116" stroke="#000000" stroke-width="1"/>
		<text x="478" y="108.6" fill="#000000" font-family="Courier New" font-size="14">RATTACHER_PANIER</text>
	</g>
	<text x="404" y="132" fill="#000000" font-family="Courier New" font-size="12">0,1</text>
	<text x="175" y="132" fill="#000000" font-family="Courier New" font-size="12">0,N</text>
</g>

<!-- Association PASSER_COMMANDE -->
<g class="page_0_a7702cee diagram_page" visibility="visible">
	<line x1="780" y1="116" x2="1024" y2="116" stroke="#000000" stroke-width="1"/>
	<line x1="105" y1="116" x2="1024" y2="116" stroke="#000000" stroke-width="1"/>
	<g>
		<path d="M1081 90 a14 14 90 0 1 14 14 V116 h-142 V104 a14 14 90 0 1 14 -14" fill="#FFFFFF" stroke="#FFFFFF" stroke-width="0"/>
		<path d="M1095 116 v12 a14 14 90 0 1 -14 14 H967 a14 14 90 0 1 -14 -14 V116 H142" fill="#FFFFFF" stroke="#FFFFFF" stroke-width="0"/>
		<rect x="953" y="90" width="142" height="52" fill="none" rx="14" stroke="#000000" stroke-width="1.5"/>
		<line x1="953" y1="116" x2="1095" y2="116" stroke="#000000" stroke-width="1"/>
		<text x="961" y="108.6" fill="#000000" font-family="Courier New" font-size="14">PASSER_COMMANDE</text>
	</g>
	<text x="879" y="132" fill="#000000" font-family="Courier New" font-size="12">0,1</text>
	<text x="175" y="132" fill="#000000" font-family="Courier New" font-size="12">0,N</text>
</g>

<!-- Association CONTENIR_LIGNE_PANIER -->
<g class="page_0_a7702cee diagram_page" visibility="visible">
	<line x1="105" y1="273" x2="339" y2="273" stroke="#000000" stroke-width="1"/>
	<line x1="339" y1="116" x2="339" y2="273" stroke="#000000" stroke-width="1"/>
	<g>
		<path d="M421 247 a14 14 90 0 1 14 14 V273 h-192 V261 a14 14 90 0 1 14 -14" fill="#FFFFFF" stroke="#FFFFFF" stroke-width="0"/>
		<path d="M435 273 v12 a14 14 90 0 1 -14 14 H257 a14 14 90 0 1 -14 -14 V273 H192" fill="#FFFFFF" stroke="#FFFFFF" stroke-width="0"/>
		<rect x="243" y="247" width="192" height="52" fill="none" rx="14" stroke="#000000" stroke-width="1.5"/>
		<line x1="243" y1="273" x2="435" y2="273" stroke="#000000" stroke-width="1"/>
		<text x="250" y="265.6" fill="#000000" font-family="Courier New" font-size="14">CONTENIR_LIGNE_PANIER</text>
	</g>
	<text x="179" y="289" fill="#000000" font-family="Courier New" font-size="12">1,1</text>
	<text x="344" y="185" fill="#000000" font-family="Courier New" font-size="12">0,N</text>
</g>

<!-- Association CONCERNER_PRODUIT_PANIER -->
<g class="page_0_a7702cee diagram_page" visibility="visible">
	<line x1="105" y1="273" x2="780" y2="273" stroke="#000000" stroke-width="1"/>
	<line x1="546" y1="273" x2="780" y2="273" stroke="#000000" stroke-width="1"/>
	<g>
		<path d="M875 247 a14 14 90 0 1 14 14 V273 h-218 V261 a14 14 90 0 1 14 -14" fill="#FFFFFF" stroke="#FFFFFF" stroke-width="0"/>
		<path d="M889 273 v12 a14 14 90 0 1 -14 14 H685 a14 14 90 0 1 -14 -14 V273 H218" fill="#FFFFFF" stroke="#FFFFFF" stroke-width="0"/>
		<rect x="671" y="247" width="218" height="52" fill="none" rx="14" stroke="#000000" stroke-width="1.5"/>
		<line x1="671" y1="273" x2="889" y2="273" stroke="#000000" stroke-width="1"/>
		<text x="679" y="265.6" fill="#000000" font-family="Courier New" font-size="14">CONCERNER_PRODUIT_PANIER</text>
	</g>
	<text x="179" y="289" fill="#000000" font-family="Courier New" font-size="12">1,1</text>
	<text x="611" y="265" fill="#000000" font-family="Courier New" font-size="12">0,N</text>
</g>

<!-- Association APPARTENIR -->
<g class="page_0_a7702cee diagram_page" visibility="visible">
	<path d="M546 273 C580.42 226.37 433.42 275.71 105 421" fill="none" stroke="#000000" stroke-width="1"/>
	<line x1="1024" y1="273" x2="105" y2="421" stroke="#000000" stroke-width="1"/>
	<g>
		<path d="M141 395 a14 14 90 0 1 14 14 V421 h-100 V409 a14 14 90 0 1 14 -14" fill="#FFFFFF" stroke="#FFFFFF" stroke-width="0"/>
		<path d="M155 421 v12 a14 14 90 0 1 -14 14 H69 a14 14 90 0 1 -14 -14 V421 H100" fill="#FFFFFF" stroke="#FFFFFF" stroke-width="0"/>
		<rect x="55" y="395" width="100" height="52" fill="none" rx="14" stroke="#000000" stroke-width="1.5"/>
		<line x1="55" y1="421" x2="155" y2="421" stroke="#000000" stroke-width="1"/>
		<text x="63" y="413.6" fill="#000000" font-family="Courier New" font-size="14">APPARTENIR</text>
	</g>
	<text x="458" y="291.38" fill="#000000" font-family="Courier New" font-size="12">1,1</text>
	<text x="940" y="275.23" fill="#000000" font-family="Courier New" font-size="12">0,N</text>
</g>

<!-- Association DETAILLER_COMMANDE -->
<g class="page_0_a7702cee diagram_page" visibility="visible">
	<line x1="339" y1="421" x2="546" y2="421" stroke="#000000" stroke-width="1"/>
	<line x1="780" y1="116" x2="546" y2="421" stroke="#000000" stroke-width="1"/>
	<g>
		<path d="M616 395 a14 14 90 0 1 14 14 V421 h-168 V409 a14 14 90 0 1 14 -14" fill="#FFFFFF" stroke="#FFFFFF" stroke-width="0"/>
		<path d="M630 421 v12 a14 14 90 0 1 -14 14 H476 a14 14 90 0 1 -14 -14 V421 H168" fill="#FFFFFF" stroke="#FFFFFF" stroke-width="0"/>
		<rect x="462" y="395" width="168" height="52" fill="none" rx="14" stroke="#000000" stroke-width="1.5"/>
		<line x1="462" y1="421" x2="630" y2="421" stroke="#000000" stroke-width="1"/>
		<text x="470" y="413.6" fill="#000000" font-family="Courier New" font-size="14">DETAILLER_COMMANDE</text>
	</g>
	<text x="434" y="437" fill="#000000" font-family="Courier New" font-size="12">1,1</text>
	<text x="697.14" y="239" fill="#000000" font-family="Courier New" font-size="12">1,N</text>
</g>

<!-- Association CONCERNER_PRODUIT_COMMANDE -->
<g class="page_0_a7702cee diagram_page" visibility="visible">
	<line x1="339" y1="421" x2="780" y2="421" stroke="#000000" stroke-width="1"/>
	<line x1="546" y1="273" x2="780" y2="421" stroke="#000000" stroke-width="1"/>
	<g>
		<path d="M883 395 a14 14 90 0 1 14 14 V421 h-234 V409 a14 14 90 0 1 14 -14" fill="#FFFFFF" stroke="#FFFFFF" stroke-width="0"/>
		<path d="M897 421 v12 a14 14 90 0 1 -14 14 H677 a14 14 90 0 1 -14 -14 V421 H234" fill="#FFFFFF" stroke="#FFFFFF" stroke-width="0"/>
		<rect x="663" y="395" width="234" height="52" fill="none" rx="14" stroke="#000000" stroke-width="1.5"/>
		<line x1="663" y1="421" x2="897" y2="421" stroke="#000000" stroke-width="1"/>
		<text x="670" y="413.6" fill="#000000" font-family="Courier New" font-size="14">CONCERNER_PRODUIT_COMMANDE</text>
	</g>
	<text x="434" y="437" fill="#000000" font-family="Courier New" font-size="12">1,1</text>
	<text x="611" y="307.82" fill="#000000" font-family="Courier New" font-size="12">0,N</text>
</g>

<!-- Association REGLER -->
<g class="page_0_a7702cee diagram_page" visibility="visible">
	<line x1="1024" y1="421" x2="105" y2="551" stroke="#000000" stroke-width="1"/>
	<line x1="780" y1="116" x2="105" y2="551" stroke="#000000" stroke-width="1"/>
	<g>
		<path d="M124 525 a14 14 90 0 1 14 14 V551 h-66 V539 a14 14 90 0 1 14 -14" fill="#FFFFFF" stroke="#FFFFFF" stroke-width="0"/>
		<path d="M138 551 v12 a14 14 90 0 1 -14 14 H86 a14 14 90 0 1 -14 -14 V551 H66" fill="#FFFFFF" stroke="#FFFFFF" stroke-width="0"/>
		<rect x="72" y="525" width="66" height="52" fill="none" rx="14" stroke="#000000" stroke-width="1.5"/>
		<line x1="72" y1="551" x2="138" y2="551" stroke="#000000" stroke-width="1"/>
		<text x="79" y="543.6" fill="#000000" font-family="Courier New" font-size="14">REGLER</text>
	</g>
	<text x="902" y="427.36" fill="#000000" font-family="Courier New" font-size="12">1,1</text>
	<text x="658" y="173.54" fill="#000000" font-family="Courier New" font-size="12">0,N</text>
</g>

<!-- Association DEFINIR -->
<g class="page_0_a7702cee diagram_page" visibility="visible">
	<line x1="780" y1="551" x2="546" y2="551" stroke="#000000" stroke-width="1"/>
	<line x1="339" y1="551" x2="546" y2="551" stroke="#000000" stroke-width="1"/>
	<g>
		<path d="M569 525 a14 14 90 0 1 14 14 V551 h-74 V539 a14 14 90 0 1 14 -14" fill="#FFFFFF" stroke="#FFFFFF" stroke-width="0"/>
		<path d="M583 551 v12 a14 14 90 0 1 -14 14 H523 a14 14 90 0 1 -14 -14 V551 H74" fill="#FFFFFF" stroke="#FFFFFF" stroke-width="0"/>
		<rect x="509" y="525" width="74" height="52" fill="none" rx="14" stroke="#000000" stroke-width="1.5"/>
		<line x1="509" y1="551" x2="583" y2="551" stroke="#000000" stroke-width="1"/>
		<text x="516" y="543.6" fill="#000000" font-family="Courier New" font-size="14">DEFINIR</text>
	</g>
	<text x="679" y="543" fill="#000000" font-family="Courier New" font-size="12">1,1</text>
	<text x="417" y="567" fill="#000000" font-family="Courier New" font-size="12">0,N</text>
</g>

<!-- Association PROPOSER_OPTION -->
<g class="page_0_a7702cee diagram_page" visibility="visible">
	<line x1="546" y1="273" x2="1024" y2="551" stroke="#000000" stroke-width="1"/>
	<line x1="780" y1="551" x2="1024" y2="551" stroke="#000000" stroke-width="1"/>
	<g>
		<path d="M1081 525 a14 14 90 0 1 14 14 V551 h-142 V539 a14 14 90 0 1 14 -14" fill="#FFFFFF" stroke="#FFFFFF" stroke-width="0"/>
		<path d="M1095 551 v12 a14 14 90 0 1 -14 14 H967 a14 14 90 0 1 -14 -14 V551 H142" fill="#FFFFFF" stroke="#FFFFFF" stroke-width="0"/>
		<rect x="953" y="525" width="142" height="52" fill="none" rx="14" stroke="#000000" stroke-width="1.5"/>
		<line x1="953" y1="551" x2="1095" y2="551" stroke="#000000" stroke-width="1"/>
		<text x="961" y="543.6" fill="#000000" font-family="Courier New" font-size="14">PROPOSER_OPTION</text>
	</g>
	<text x="611" y="304.41" fill="#000000" font-family="Courier New" font-size="12">0,N</text>
	<text x="858" y="567" fill="#000000" font-family="Courier New" font-size="12">0,N</text>
</g>

<!-- Association CHOISIR_OPTION_PANIER -->
<g class="page_0_a7702cee diagram_page" visibility="visible">
	<line x1="105" y1="273" x2="105" y2="663" stroke="#000000" stroke-width="1"/>
	<line x1="780" y1="551" x2="105" y2="663" stroke="#000000" stroke-width="1"/>
	<g>
		<path d="M187 637 a14 14 90 0 1 14 14 V663 h-192 V651 a14 14 90 0 1 14 -14" fill="#FFFFFF" stroke="#FFFFFF" stroke-width="0"/>
		<path d="M201 663 v12 a14 14 90 0 1 -14 14 H23 a14 14 90 0 1 -14 -14 V663 H192" fill="#FFFFFF" stroke="#FFFFFF" stroke-width="0"/>
		<rect x="9" y="637" width="192" height="52" fill="none" rx="14" stroke="#000000" stroke-width="1.5"/>
		<line x1="9" y1="663" x2="201" y2="663" stroke="#000000" stroke-width="1"/>
		<text x="16" y="655.6" fill="#000000" font-family="Courier New" font-size="14">CHOISIR_OPTION_PANIER</text>
	</g>
	<text x="110" y="333" fill="#000000" font-family="Courier New" font-size="12">0,N</text>
	<text x="679" y="556.37" fill="#000000" font-family="Courier New" font-size="12">0,N</text>
</g>

<!-- Association CHOISIR_OPTION_COMMANDE -->
<g class="page_0_a7702cee diagram_page" visibility="visible">
	<line x1="339" y1="421" x2="339" y2="663" stroke="#000000" stroke-width="1"/>
	<line x1="780" y1="551" x2="339" y2="663" stroke="#000000" stroke-width="1"/>
	<g>
		<path d="M430 637 a14 14 90 0 1 14 14 V663 h-210 V651 a14 14 90 0 1 14 -14" fill="#FFFFFF" stroke="#FFFFFF" stroke-width="0"/>
		<path d="M444 663 v12 a14 14 90 0 1 -14 14 H248 a14 14 90 0 1 -14 -14 V663 H210" fill="#FFFFFF" stroke="#FFFFFF" stroke-width="0"/>
		<rect x="234" y="637" width="210" height="52" fill="none" rx="14" stroke="#000000" stroke-width="1.5"/>
		<line x1="234" y1="663" x2="444" y2="663" stroke="#000000" stroke-width="1"/>
		<text x="242" y="655.6" fill="#000000" font-family="Courier New" font-size="14">CHOISIR_OPTION_COMMANDE</text>
	</g>
	<text x="344" y="490" fill="#000000" font-family="Courier New" font-size="12">0,N</text>
	<text x="679" y="563.5" fill="#000000" font-family="Courier New" font-size="12">0,N</text>
</g>

<!-- Association RECOMMANDER -->
<g class="page_0_a7702cee diagram_page" visibility="visible">
	<path d="M546 273 C590 265.67 590 395.67 546 663" fill="none" stroke="#000000" stroke-width="1"/>
	<path d="M546 273 C502 265.67 502 395.67 546 663" fill="none" stroke="#000000" stroke-width="1"/>
	<g>
		<path d="M586 637 a14 14 90 0 1 14 14 V663 h-108 V651 a14 14 90 0 1 14 -14" fill="#FFFFFF" stroke="#FFFFFF" stroke-width="0"/>
		<path d="M600 663 v12 a14 14 90 0 1 -14 14 H506 a14 14 90 0 1 -14 -14 V663 H108" fill="#FFFFFF" stroke="#FFFFFF" stroke-width="0"/>
		<rect x="492" y="637" width="108" height="52" fill="none" rx="14" stroke="#000000" stroke-width="1.5"/>
		<line x1="492" y1="663" x2="600" y2="663" stroke="#000000" stroke-width="1"/>
		<text x="499" y="655.6" fill="#000000" font-family="Courier New" font-size="14">RECOMMANDER</text>
		<text x="499" y="681.6" fill="#000000" font-family="Courier New" font-size="14">rang</text>
	</g>
	<text x="551" y="369" fill="#000000" font-family="Courier New" font-size="12" onmouseover="show_a7702cee(evt,'source')" onmouseout="hide_a7702cee(evt)" style="cursor: pointer;">0,N</text>
	<text x="518" y="369" fill="#000000" font-family="Courier New" font-size="12" onmouseover="show_a7702cee(evt,'cible')" onmouseout="hide_a7702cee(evt)" style="cursor: pointer;">0,N</text>
</g>

<!-- Association CLASSER_FAQ -->
<g class="page_0_a7702cee diagram_page" visibility="visible">
	<line x1="1024" y1="663" x2="339" y2="784" stroke="#000000" stroke-width="1"/>
	<line x1="780" y1="663" x2="339" y2="784" stroke="#000000" stroke-width="1"/>
	<g>
		<path d="M379 758 a14 14 90 0 1 14 14 V784 h-108 V772 a14 14 90 0 1 14 -14" fill="#FFFFFF" stroke="#FFFFFF" stroke-width="0"/>
		<path d="M393 784 v12 a14 14 90 0 1 -14 14 H299 a14 14 90 0 1 -14 -14 V784 H108" fill="#FFFFFF" stroke="#FFFFFF" stroke-width="0"/>
		<rect x="285" y="758" width="108" height="52" fill="none" rx="14" stroke="#000000" stroke-width="1.5"/>
		<line x1="285" y1="784" x2="393" y2="784" stroke="#000000" stroke-width="1"/>
		<text x="292" y="776.6" fill="#000000" font-family="Courier New" font-size="14">CLASSER_FAQ</text>
	</g>
	<text x="927" y="668.53" fill="#000000" font-family="Courier New" font-size="12">1,1</text>
	<text x="679" y="677.15" fill="#000000" font-family="Courier New" font-size="12">0,N</text>
</g>

<!-- Entity UTILISATEUR -->
<g class="page_0_a7702cee diagram_page" visibility="visible">
	<g>
		<rect x="40" y="54" width="130" height="26" fill="#FFFFFF" stroke="none" stroke-width="0" opacity="1"/>
		<rect x="40" y="80" width="130" height="98" fill="#FFFFFF" stroke="none" stroke-width="0" opacity="1"/>
		<rect x="40" y="54" width="130" height="124" fill="none" stroke="#000000" stroke-width="1.5" opacity="1"/>
		<line x1="40" y1="80" x2="170" y2="80" stroke="#000000" stroke-width="1"/>
	</g>
	<text x="58" y="72.6" fill="#000000" font-family="Courier New" font-size="14">UTILISATEUR</text>
	<text x="45" y="98.6" fill="#000000" font-family="Courier New" font-size="14">id utilisateur</text>
	<line x1="45" y1="101" x2="164" y2="101" stroke="#000000" stroke-width="1"/>
	<text x="45" y="116.6" fill="#000000" font-family="Courier New" font-size="14">email</text>
	<text x="45" y="134.6" fill="#000000" font-family="Courier New" font-size="14">telephone</text>
	<text x="45" y="152.6" fill="#000000" font-family="Courier New" font-size="14">password hash</text>
	<text x="45" y="170.6" fill="#000000" font-family="Courier New" font-size="14">date creation</text>
</g>

<!-- Entity PANIER -->
<g class="page_0_a7702cee diagram_page" visibility="visible">
	<g>
		<rect x="279" y="63" width="120" height="26" fill="#FFFFFF" stroke="none" stroke-width="0" opacity="1"/>
		<rect x="279" y="89" width="120" height="80" fill="#FFFFFF" stroke="none" stroke-width="0" opacity="1"/>
		<rect x="279" y="63" width="120" height="106" fill="none" stroke="#000000" stroke-width="1.5" opacity="1"/>
		<line x1="279" y1="89" x2="399" y2="89" stroke="#000000" stroke-width="1"/>
	</g>
	<text x="313" y="81.6" fill="#000000" font-family="Courier New" font-size="14">PANIER</text>
	<text x="284" y="107.6" fill="#000000" font-family="Courier New" font-size="14">id panier</text>
	<line x1="284" y1="110" x2="361" y2="110" stroke="#000000" stroke-width="1"/>
	<text x="284" y="125.6" fill="#000000" font-family="Courier New" font-size="14">token session</text>
	<text x="284" y="143.6" fill="#000000" font-family="Courier New" font-size="14">date creation</text>
	<text x="284" y="161.6" fill="#000000" font-family="Courier New" font-size="14">date maj</text>
</g>

<!-- Entity COMMANDE -->
<g class="page_0_a7702cee diagram_page" visibility="visible">
	<g>
		<rect x="686" y="9" width="188" height="26" fill="#FFFFFF" stroke="none" stroke-width="0" opacity="1"/>
		<rect x="686" y="35" width="188" height="188" fill="#FFFFFF" stroke="none" stroke-width="0" opacity="1"/>
		<rect x="686" y="9" width="188" height="214" fill="none" stroke="#000000" stroke-width="1.5" opacity="1"/>
		<line x1="686" y1="35" x2="874" y2="35" stroke="#000000" stroke-width="1"/>
	</g>
	<text x="746" y="27.6" fill="#000000" font-family="Courier New" font-size="14">COMMANDE</text>
	<text x="691" y="53.6" fill="#000000" font-family="Courier New" font-size="14">id commande</text>
	<line x1="691" y1="56" x2="785" y2="56" stroke="#000000" stroke-width="1"/>
	<text x="691" y="71.6" fill="#000000" font-family="Courier New" font-size="14">prenom</text>
	<text x="691" y="89.6" fill="#000000" font-family="Courier New" font-size="14">nom</text>
	<text x="691" y="107.6" fill="#000000" font-family="Courier New" font-size="14">email</text>
	<text x="691" y="125.6" fill="#000000" font-family="Courier New" font-size="14">adresse livraison</text>
	<text x="691" y="143.6" fill="#000000" font-family="Courier New" font-size="14">departement livraison</text>
	<text x="691" y="161.6" fill="#000000" font-family="Courier New" font-size="14">pays livraison</text>
	<text x="691" y="179.6" fill="#000000" font-family="Courier New" font-size="14">statut</text>
	<text x="691" y="197.6" fill="#000000" font-family="Courier New" font-size="14">montant total</text>
	<text x="691" y="215.6" fill="#000000" font-family="Courier New" font-size="14">date creation</text>
</g>

<!-- Entity LIGNE_PANIER -->
<g class="page_0_a7702cee diagram_page" visibility="visible">
	<g>
		<rect x="36" y="229" width="138" height="26" fill="#FFFFFF" stroke="none" stroke-width="0" opacity="1"/>
		<rect x="36" y="255" width="138" height="62" fill="#FFFFFF" stroke="none" stroke-width="0" opacity="1"/>
		<rect x="36" y="229" width="138" height="88" fill="none" stroke="#000000" stroke-width="1.5" opacity="1"/>
		<line x1="36" y1="255" x2="174" y2="255" stroke="#000000" stroke-width="1"/>
	</g>
	<text x="54" y="247.6" fill="#000000" font-family="Courier New" font-size="14">LIGNE_PANIER</text>
	<text x="41" y="273.6" fill="#000000" font-family="Courier New" font-size="14">id ligne panier</text>
	<line x1="41" y1="276" x2="168" y2="276" stroke="#000000" stroke-width="1"/>
	<text x="41" y="291.6" fill="#000000" font-family="Courier New" font-size="14">quantite</text>
	<text x="41" y="309.6" fill="#000000" font-family="Courier New" font-size="14">prix unitaire</text>
</g>

<!-- Entity PRODUIT -->
<g class="page_0_a7702cee diagram_page" visibility="visible">
	<g>
		<rect x="486" y="193" width="120" height="26" fill="#FFFFFF" stroke="none" stroke-width="0" opacity="1"/>
		<rect x="486" y="219" width="120" height="134" fill="#FFFFFF" stroke="none" stroke-width="0" opacity="1"/>
		<rect x="486" y="193" width="120" height="160" fill="none" stroke="#000000" stroke-width="1.5" opacity="1"/>
		<line x1="486" y1="219" x2="606" y2="219" stroke="#000000" stroke-width="1"/>
	</g>
	<text x="516" y="211.6" fill="#000000" font-family="Courier New" font-size="14">PRODUIT</text>
	<text x="491" y="237.6" fill="#000000" font-family="Courier New" font-size="14">id produit</text>
	<line x1="491" y1="240" x2="576" y2="240" stroke="#000000" stroke-width="1"/>
	<text x="491" y="255.6" fill="#000000" font-family="Courier New" font-size="14">nom</text>
	<text x="491" y="273.6" fill="#000000" font-family="Courier New" font-size="14">description</text>
	<text x="491" y="291.6" fill="#000000" font-family="Courier New" font-size="14">image url</text>
	<text x="491" y="309.6" fill="#000000" font-family="Courier New" font-size="14">prix base</text>
	<text x="491" y="327.6" fill="#000000" font-family="Courier New" font-size="14">actif</text>
	<text x="491" y="345.6" fill="#000000" font-family="Courier New" font-size="14">date creation</text>
</g>

<!-- Entity CATEGORIE -->
<g class="page_0_a7702cee diagram_page" visibility="visible">
	<g>
		<rect x="968" y="229" width="112" height="26" fill="#FFFFFF" stroke="none" stroke-width="0" opacity="1"/>
		<rect x="968" y="255" width="112" height="62" fill="#FFFFFF" stroke="none" stroke-width="0" opacity="1"/>
		<rect x="968" y="229" width="112" height="88" fill="none" stroke="#000000" stroke-width="1.5" opacity="1"/>
		<line x1="968" y1="255" x2="1080" y2="255" stroke="#000000" stroke-width="1"/>
	</g>
	<text x="986" y="247.6" fill="#000000" font-family="Courier New" font-size="14">CATEGORIE</text>
	<text x="973" y="273.6" fill="#000000" font-family="Courier New" font-size="14">id categorie</text>
	<line x1="973" y1="276" x2="1075" y2="276" stroke="#000000" stroke-width="1"/>
	<text x="973" y="291.6" fill="#000000" font-family="Courier New" font-size="14">nom</text>
	<text x="973" y="309.6" fill="#000000" font-family="Courier New" font-size="14">slug</text>
</g>

<!-- Entity LIGNE_COMMANDE -->
<g class="page_0_a7702cee diagram_page" visibility="visible">
	<g>
		<rect x="249" y="368" width="180" height="26" fill="#FFFFFF" stroke="none" stroke-width="0" opacity="1"/>
		<rect x="249" y="394" width="180" height="80" fill="#FFFFFF" stroke="none" stroke-width="0" opacity="1"/>
		<rect x="249" y="368" width="180" height="106" fill="none" stroke="#000000" stroke-width="1.5" opacity="1"/>
		<line x1="249" y1="394" x2="429" y2="394" stroke="#000000" stroke-width="1"/>
	</g>
	<text x="280" y="386.6" fill="#000000" font-family="Courier New" font-size="14">LIGNE_COMMANDE</text>
	<text x="254" y="412.6" fill="#000000" font-family="Courier New" font-size="14">id ligne commande</text>
	<line x1="254" y1="415" x2="398" y2="415" stroke="#000000" stroke-width="1"/>
	<text x="254" y="430.6" fill="#000000" font-family="Courier New" font-size="14">quantite</text>
	<text x="254" y="448.6" fill="#000000" font-family="Courier New" font-size="14">prix unitaire</text>
	<text x="254" y="466.6" fill="#000000" font-family="Courier New" font-size="14">nom produit snapshot</text>
</g>

<!-- Entity PAIEMENT -->
<g class="page_0_a7702cee diagram_page" visibility="visible">
	<g>
		<rect x="930" y="341" width="188" height="26" fill="#FFFFFF" stroke="none" stroke-width="0" opacity="1"/>
		<rect x="930" y="367" width="188" height="134" fill="#FFFFFF" stroke="none" stroke-width="0" opacity="1"/>
		<rect x="930" y="341" width="188" height="160" fill="none" stroke="#000000" stroke-width="1.5" opacity="1"/>
		<line x1="930" y1="367" x2="1118" y2="367" stroke="#000000" stroke-width="1"/>
	</g>
	<text x="990" y="359.6" fill="#000000" font-family="Courier New" font-size="14">PAIEMENT</text>
	<text x="935" y="385.6" fill="#000000" font-family="Courier New" font-size="14">id paiement</text>
	<line x1="935" y1="388" x2="1029" y2="388" stroke="#000000" stroke-width="1"/>
	<text x="935" y="403.6" fill="#000000" font-family="Courier New" font-size="14">methode</text>
	<text x="935" y="421.6" fill="#000000" font-family="Courier New" font-size="14">reference transaction</text>
	<text x="935" y="439.6" fill="#000000" font-family="Courier New" font-size="14">montant</text>
	<text x="935" y="457.6" fill="#000000" font-family="Courier New" font-size="14">statut</text>
	<text x="935" y="475.6" fill="#000000" font-family="Courier New" font-size="14">date paiement</text>
	<text x="935" y="493.6" fill="#000000" font-family="Courier New" font-size="14">date creation</text>
</g>

<!-- Entity GROUPE_OPTION -->
<g class="page_0_a7702cee diagram_page" visibility="visible">
	<g>
		<rect x="266" y="516" width="146" height="26" fill="#FFFFFF" stroke="none" stroke-width="0" opacity="1"/>
		<rect x="266" y="542" width="146" height="44" fill="#FFFFFF" stroke="none" stroke-width="0" opacity="1"/>
		<rect x="266" y="516" width="146" height="70" fill="none" stroke="#000000" stroke-width="1.5" opacity="1"/>
		<line x1="266" y1="542" x2="412" y2="542" stroke="#000000" stroke-width="1"/>
	</g>
	<text x="284" y="534.6" fill="#000000" font-family="Courier New" font-size="14">GROUPE_OPTION</text>
	<text x="271" y="560.6" fill="#000000" font-family="Courier New" font-size="14">id groupe option</text>
	<line x1="271" y1="563" x2="407" y2="563" stroke="#000000" stroke-width="1"/>
	<text x="271" y="578.6" fill="#000000" font-family="Courier New" font-size="14">nom</text>
</g>

<!-- Entity VALEUR_OPTION -->
<g class="page_0_a7702cee diagram_page" visibility="visible">
	<g>
		<rect x="707" y="507" width="146" height="26" fill="#FFFFFF" stroke="none" stroke-width="0" opacity="1"/>
		<rect x="707" y="533" width="146" height="62" fill="#FFFFFF" stroke="none" stroke-width="0" opacity="1"/>
		<rect x="707" y="507" width="146" height="88" fill="none" stroke="#000000" stroke-width="1.5" opacity="1"/>
		<line x1="707" y1="533" x2="853" y2="533" stroke="#000000" stroke-width="1"/>
	</g>
	<text x="725" y="525.6" fill="#000000" font-family="Courier New" font-size="14">VALEUR_OPTION</text>
	<text x="712" y="551.6" fill="#000000" font-family="Courier New" font-size="14">id valeur option</text>
	<line x1="712" y1="554" x2="848" y2="554" stroke="#000000" stroke-width="1"/>
	<text x="712" y="569.6" fill="#000000" font-family="Courier New" font-size="14">valeur</text>
	<text x="712" y="587.6" fill="#000000" font-family="Courier New" font-size="14">surcout</text>
</g>

<!-- Entity FAQ_CATEGORIE -->
<g class="page_0_a7702cee diagram_page" visibility="visible">
	<g>
		<rect x="707" y="619" width="146" height="26" fill="#FFFFFF" stroke="none" stroke-width="0" opacity="1"/>
		<rect x="707" y="645" width="146" height="62" fill="#FFFFFF" stroke="none" stroke-width="0" opacity="1"/>
		<rect x="707" y="619" width="146" height="88" fill="none" stroke="#000000" stroke-width="1.5" opacity="1"/>
		<line x1="707" y1="645" x2="853" y2="645" stroke="#000000" stroke-width="1"/>
	</g>
	<text x="725" y="637.6" fill="#000000" font-family="Courier New" font-size="14">FAQ_CATEGORIE</text>
	<text x="712" y="663.6" fill="#000000" font-family="Courier New" font-size="14">id faq categorie</text>
	<line x1="712" y1="666" x2="848" y2="666" stroke="#000000" stroke-width="1"/>
	<text x="712" y="681.6" fill="#000000" font-family="Courier New" font-size="14">nom</text>
	<text x="712" y="699.6" fill="#000000" font-family="Courier New" font-size="14">ordre affichage</text>
</g>

<!-- Entity FAQ_QUESTION -->
<g class="page_0_a7702cee diagram_page" visibility="visible">
	<g>
		<rect x="955" y="601" width="138" height="26" fill="#FFFFFF" stroke="none" stroke-width="0" opacity="1"/>
		<rect x="955" y="627" width="138" height="98" fill="#FFFFFF" stroke="none" stroke-width="0" opacity="1"/>
		<rect x="955" y="601" width="138" height="124" fill="none" stroke="#000000" stroke-width="1.5" opacity="1"/>
		<line x1="955" y1="627" x2="1093" y2="627" stroke="#000000" stroke-width="1"/>
	</g>
	<text x="973" y="619.6" fill="#000000" font-family="Courier New" font-size="14">FAQ_QUESTION</text>
	<text x="960" y="645.6" fill="#000000" font-family="Courier New" font-size="14">id faq question</text>
	<line x1="960" y1="648" x2="1087" y2="648" stroke="#000000" stroke-width="1"/>
	<text x="960" y="663.6" fill="#000000" font-family="Courier New" font-size="14">question</text>
	<text x="960" y="681.6" fill="#000000" font-family="Courier New" font-size="14">reponse</text>
	<text x="960" y="699.6" fill="#000000" font-family="Courier New" font-size="14">ordre affichage</text>
	<text x="960" y="717.6" fill="#000000" font-family="Courier New" font-size="14">actif</text>
</g>

<!-- Entity MESSAGE_CONTACT -->
<g class="page_0_a7702cee diagram_page" visibility="visible">
	<g>
		<rect x="477" y="713" width="138" height="26" fill="#FFFFFF" stroke="none" stroke-width="0" opacity="1"/>
		<rect x="477" y="739" width="138" height="116" fill="#FFFFFF" stroke="none" stroke-width="0" opacity="1"/>
		<rect x="477" y="713" width="138" height="142" fill="none" stroke="#000000" stroke-width="1.5" opacity="1"/>
		<line x1="477" y1="739" x2="615" y2="739" stroke="#000000" stroke-width="1"/>
	</g>
	<text x="483" y="731.6" fill="#000000" font-family="Courier New" font-size="14">MESSAGE_CONTACT</text>
	<text x="482" y="757.6" fill="#000000" font-family="Courier New" font-size="14">id message</text>
	<line x1="482" y1="760" x2="567" y2="760" stroke="#000000" stroke-width="1"/>
	<text x="482" y="775.6" fill="#000000" font-family="Courier New" font-size="14">email</text>
	<text x="482" y="793.6" fill="#000000" font-family="Courier New" font-size="14">sujet</text>
	<text x="482" y="811.6" fill="#000000" font-family="Courier New" font-size="14">corps</text>
	<text x="482" y="829.6" fill="#000000" font-family="Courier New" font-size="14">statut</text>
	<text x="482" y="847.6" fill="#000000" font-family="Courier New" font-size="14">date creation</text>
</g>

<!-- Notes -->
<script type="text/ecmascript">
<![CDATA[
	function show_a7702cee(evt, text) {
		var pos = (evt.target.getAttribute("y") < 819) ? "bottom" : "top";
		var note = document.getElementById(pos + "_note_a7702cee");
		note.textContent = text;
		note.setAttributeNS(null, "visibility", "visible");
		document.getElementById(pos + "_overlay_a7702cee").setAttributeNS(null, "visibility", "visible");
	}
	function hide_a7702cee(evt) {
		document.getElementById("top_note_a7702cee").setAttributeNS(null, "visibility", "hidden");
		document.getElementById("top_overlay_a7702cee").setAttributeNS(null, "visibility", "hidden");
		document.getElementById("bottom_note_a7702cee").setAttributeNS(null, "visibility", "hidden");
		document.getElementById("bottom_overlay_a7702cee").setAttributeNS(null, "visibility", "hidden");
	}
]]>
</script>
<rect id="top_overlay_a7702cee" x="0" y="0" width="100%" height="40" fill="#000000" stroke-width="0" opacity="0.7" visibility="hidden"/>
<text id="top_note_a7702cee" text-anchor="middle" x="563" y="24" fill="#FFFFFF" font-family="Liberation Serif" font-size="14" visibility="hidden"></text>
<rect id="bottom_overlay_a7702cee" x="0" y="824" width="100%" height="40" fill="#000000" stroke-width="0" opacity="0.7" visibility="hidden"/>
<text id="bottom_note_a7702cee" text-anchor="middle" x="563" y="848" fill="#FFFFFF" font-family="Liberation Serif" font-size="14" visibility="hidden"></text>
</svg>